<svg xmlns="http://www.w3.org/2000/svg" version="1.1" xmlns:xlink="http://www.w3.org/1999/xlink" xmlns:svgjs="http://svgjs.dev/svgjs" width="2000" height="1247" viewBox="0 0 2000 1247"><g transform="matrix(1,0,0,1,-1.2121212121212466,0.504858299595071)"><svg viewBox="0 0 396 247" data-background-color="#7c4e29" preserveAspectRatio="xMidYMid meet" height="1247" width="2000" xmlns="http://www.w3.org/2000/svg" xmlns:xlink="http://www.w3.org/1999/xlink"><g id="tight-bounds" transform="matrix(1,0,0,1,0.2400000000000091,-0.09999999999999432)"><svg viewBox="0 0 395.52 247.2" height="247.2" width="395.52"><g><svg></svg></g><g><svg viewBox="0 0 395.52 247.2" height="247.2" width="395.52"><g transform="matrix(1,0,0,1,39.55199999999999,96.21196131528046)"><svg viewBox="0 0 316.416 54.77607736943907" height="54.77607736943907" width="316.416"><g><svg viewBox="0 0 316.416 54.77607736943907" height="54.77607736943907" width="316.416"><g><svg viewBox="0 0 316.416 54.77607736943907" height="54.77607736943907" width="316.416"><g id="textblocktransform"><svg viewBox="0 0 316.416 54.77607736943907" height="54.77607736943907" width="316.416" id="textblock"><g><svg viewBox="0 0 316.416 54.77607736943907" height="54.77607736943907" width="316.416"><g transform="matrix(1,0,0,1,0,0)"><svg width="316.416" viewBox="0.699999988079071 -35.29999923706055 206.77999877929688 35.79999923706055" height="54.77607736943907" data-palette-color="#e6b17e"><path d="M10.5 0.5L10.5 0.5Q7.8 0.5 5.58-0.88 3.35-2.25 2.02-4.53 0.7-6.8 0.7-9.55L0.7-9.55 0.7-11.85Q0.7-12.1 0.95-12.1L0.95-12.1 6.55-12.1Q6.75-12.1 6.75-11.85L6.75-11.85 6.75-9.55Q6.75-7.9 7.85-6.73 8.95-5.55 10.5-5.55L10.5-5.55Q12.05-5.55 13.15-6.75 14.25-7.95 14.25-9.55L14.25-9.55Q14.25-11.4 11.85-12.75L11.85-12.75Q11.05-13.2 9.35-14.15 7.65-15.1 6.15-15.95L6.15-15.95Q3.4-17.55 2.08-19.98 0.75-22.4 0.75-25.45L0.75-25.45Q0.75-28.25 2.1-30.48 3.45-32.7 5.68-34 7.9-35.3 10.5-35.3L10.5-35.3Q13.15-35.3 15.38-33.98 17.6-32.65 18.93-30.43 20.25-28.2 20.25-25.45L20.25-25.45 20.25-21.35Q20.25-21.15 20.05-21.15L20.05-21.15 14.45-21.15Q14.25-21.15 14.25-21.35L14.25-21.35 14.2-25.45Q14.2-27.2 13.1-28.3 12-29.4 10.5-29.4L10.5-29.4Q8.95-29.4 7.85-28.23 6.75-27.05 6.75-25.45L6.75-25.45Q6.75-23.8 7.45-22.7 8.15-21.6 10-20.6L10-20.6Q10.25-20.45 10.98-20.08 11.7-19.7 12.55-19.23 13.4-18.75 14.08-18.4 14.75-18.05 14.9-17.95L14.9-17.95Q17.4-16.55 18.85-14.53 20.3-12.5 20.3-9.55L20.3-9.55Q20.3-6.7 18.98-4.42 17.65-2.15 15.43-0.83 13.2 0.5 10.5 0.5ZM29.65 0L24 0Q23.8 0 23.8-0.25L23.8-0.25 23.85-34.6Q23.85-34.8 24.1-34.8L24.1-34.8 29.65-34.8Q29.9-34.8 29.9-34.6L29.9-34.6 29.85-21 37.35-21 37.35-34.6Q37.35-34.8 37.55-34.8L37.55-34.8 43.1-34.8Q43.35-34.8 43.35-34.6L43.35-34.6 43.45-0.25Q43.45 0 43.2 0L43.2 0 37.6 0Q37.35 0 37.35-0.25L37.35-0.25 37.35-14.95 29.85-14.95 29.85-0.25Q29.85 0 29.65 0L29.65 0ZM45.84-0.25L45.84-0.25 52.05-34.6Q52.09-34.8 52.3-34.8L52.3-34.8 59.55-34.8Q59.75-34.8 59.8-34.6L59.8-34.6 65.75-0.25Q65.8 0 65.55 0L65.55 0 60 0Q59.8 0 59.75-0.25L59.75-0.25 59.2-3.9 52.4-3.9 51.84-0.25Q51.8 0 51.59 0L51.59 0 46.05 0Q45.84 0 45.84-0.25ZM55.65-23.3L53.4-9.25 58.2-9.25 56.15-23.3 55.84-25.15 55.65-23.3ZM74.74 0L69.14 0Q68.89 0 68.89-0.25L68.89-0.25 68.99-34.6Q68.99-34.8 69.19-34.8L69.19-34.8 78.79-34.8Q83.39-34.8 86.07-32 88.74-29.2 88.74-24.4L88.74-24.4Q88.74-20.85 87.34-18.25 85.94-15.65 83.69-14.25 81.44-12.85 78.79-12.85L78.79-12.85 74.99-12.85 74.99-0.25Q74.99 0 74.74 0L74.74 0ZM74.99-28.8L74.99-18.9 78.79-18.9Q80.39-18.9 81.57-20.43 82.74-21.95 82.74-24.4L82.74-24.4Q82.74-26.35 81.69-27.6 80.64-28.85 78.79-28.85L78.79-28.85 74.99-28.8ZM108.49 0L92.34 0Q92.14 0 92.14-0.25L92.14-0.25 92.19-34.6Q92.19-34.8 92.39-34.8L92.39-34.8 108.44-34.8Q108.64-34.8 108.64-34.55L108.64-34.55 108.64-28.95Q108.64-28.75 108.44-28.75L108.44-28.75 98.19-28.75 98.19-20.95 108.44-20.95Q108.64-20.95 108.64-20.75L108.64-20.75 108.69-15.1Q108.69-14.9 108.49-14.9L108.49-14.9 98.19-14.9 98.19-6.15 108.49-6.15Q108.69-6.15 108.69-5.9L108.69-5.9 108.69-0.2Q108.69 0 108.49 0L108.49 0ZM121.34 0.5L121.34 0.5Q118.64 0.5 116.41-0.88 114.19-2.25 112.86-4.53 111.54-6.8 111.54-9.55L111.54-9.55 111.54-11.85Q111.54-12.1 111.79-12.1L111.79-12.1 117.39-12.1Q117.59-12.1 117.59-11.85L117.59-11.85 117.59-9.55Q117.59-7.9 118.69-6.73 119.79-5.55 121.34-5.55L121.34-5.55Q122.89-5.55 123.99-6.75 125.09-7.95 125.09-9.55L125.09-9.55Q125.09-11.4 122.69-12.75L122.69-12.75Q121.89-13.2 120.19-14.15 118.49-15.1 116.99-15.95L116.99-15.95Q114.24-17.55 112.91-19.98 111.59-22.4 111.59-25.45L111.59-25.45Q111.59-28.25 112.94-30.48 114.29-32.7 116.51-34 118.74-35.3 121.34-35.3L121.34-35.3Q123.99-35.3 126.21-33.98 128.44-32.65 129.76-30.43 131.09-28.2 131.09-25.45L131.09-25.45 131.09-21.35Q131.09-21.15 130.89-21.15L130.89-21.15 125.29-21.15Q125.09-21.15 125.09-21.35L125.09-21.35 125.04-25.45Q125.04-27.2 123.94-28.3 122.84-29.4 121.34-29.4L121.34-29.4Q119.79-29.4 118.69-28.23 117.59-27.05 117.59-25.45L117.59-25.45Q117.59-23.8 118.29-22.7 118.99-21.6 120.84-20.6L120.84-20.6Q121.09-20.45 121.81-20.08 122.54-19.7 123.39-19.23 124.24-18.75 124.91-18.4 125.59-18.05 125.74-17.95L125.74-17.95Q128.24-16.55 129.69-14.53 131.14-12.5 131.14-9.55L131.14-9.55Q131.14-6.7 129.81-4.42 128.49-2.15 126.26-0.83 124.04 0.5 121.34 0.5ZM140.49 0L134.84 0Q134.64 0 134.64-0.25L134.64-0.25 134.69-34.6Q134.69-34.8 134.94-34.8L134.94-34.8 140.49-34.8Q140.74-34.8 140.74-34.6L140.74-34.6 140.69-21 148.19-21 148.19-34.6Q148.19-34.8 148.39-34.8L148.39-34.8 153.94-34.8Q154.19-34.8 154.19-34.6L154.19-34.6 154.29-0.25Q154.29 0 154.04 0L154.04 0 148.44 0Q148.19 0 148.19-0.25L148.19-0.25 148.19-14.95 140.69-14.95 140.69-0.25Q140.69 0 140.49 0L140.49 0ZM164.28 0L158.63 0Q158.38 0 158.38-0.25L158.38-0.25 158.43-34.6Q158.43-34.8 158.63-34.8L158.63-34.8 164.23-34.8Q164.43-34.8 164.43-34.6L164.43-34.6 164.48-0.25Q164.48 0 164.28 0L164.28 0ZM174.73 0L169.13 0Q168.88 0 168.88-0.25L168.88-0.25 168.98-34.6Q168.98-34.8 169.18-34.8L169.18-34.8 185.18-34.8Q185.43-34.8 185.43-34.6L185.43-34.6 185.43-28.95Q185.43-28.75 185.23-28.75L185.23-28.75 174.98-28.75 174.98-21 185.23-21Q185.43-21 185.43-20.75L185.43-20.75 185.48-15.1Q185.48-14.9 185.23-14.9L185.23-14.9 174.98-14.9 174.98-0.25Q174.98 0 174.73 0L174.73 0ZM200.58 0L194.93 0Q194.73 0 194.73-0.25L194.73-0.25 194.73-28.75 188.23-28.75Q187.98-28.75 187.98-29L187.98-29 188.03-34.6Q188.03-34.8 188.23-34.8L188.23-34.8 207.23-34.8Q207.48-34.8 207.48-34.6L207.48-34.6 207.48-29Q207.48-28.75 207.28-28.75L207.28-28.75 200.73-28.75 200.78-0.25Q200.78 0 200.58 0L200.58 0Z" opacity="1" transform="matrix(1,0,0,1,0,0)" fill="#e6b17e" class="undefined-text-0" data-fill-palette-color="primary" id="text-0"></path></svg></g></svg></g></svg></g></svg></g></svg></g></svg></g><g mask="url(#27c0ab82-85cd-44b2-a7b9-16b8b7c10a53)"><g transform="matrix(3.693135934654674, 0, 0, 3.693135934654674, 31.568882940539652, 1)"><svg xmlns="http://www.w3.org/2000/svg" xmlns:sodipodi="http://sodipodi.sourceforge.net/DTD/sodipodi-0.dtd" viewBox="5 16.806554794311523 90 66.39344024658203" x="0" y="0" height="66.39344024658203" width="90" class="icon-none" data-fill-palette-color="accent" id="none"><path d="M39.688 16.813C33.576 16.813 28.594 21.764 28.594 27.875L28.594 72.125C28.594 78.236 33.576 83.188 39.688 83.188L83.938 83.188C90.049 83.188 95 78.236 95 72.125L95 27.875C95 21.764 90.049 16.813 83.938 16.813L39.688 16.813zM39.688 19.031L59.969 19.031C59.858 19.236 59.781 19.47 59.781 19.719 59.781 20.516 60.422 21.156 61.219 21.156 62.016 21.156 62.656 20.516 62.656 19.719 62.656 19.47 62.611 19.236 62.5 19.031L83.938 19.031C88.827 19.031 92.781 22.986 92.781 27.875L92.781 72.125C92.781 77.014 88.827 81 83.938 81L62.5 81C62.62 80.79 62.656 80.54 62.656 80.281 62.656 79.484 62.016 78.844 61.219 78.844 60.422 78.844 59.781 79.484 59.781 80.281 59.781 80.545 59.876 80.787 60 81L39.688 81C34.798 81 30.813 77.014 30.813 72.125L30.813 27.875C30.813 22.986 34.798 19.031 39.688 19.031z" color="#D9BCA9" fill="#d9bca9" data-fill-palette-color="accent"></path><path d="M30.98 81.757c0 0.797-0.646 1.443-1.443 1.443-0.797 0-1.443-0.646-1.444-1.443 0-0.797 0.646-1.443 1.444-1.444 0.797 0 1.443 0.646 1.443 1.444z" color="#D9BCA9" fill="#d9bca9" data-fill-palette-color="accent"></path><path d="M13.66 80.281c0 0.797-0.646 1.443-1.443 1.444-0.797 0-1.443-0.646-1.444-1.444 0-0.797 0.646-1.443 1.444-1.443 0.797 0 1.443 0.646 1.443 1.443z" color="#D9BCA9" fill="#d9bca9" data-fill-palette-color="accent"></path><path d="M19.433 81.757c0 0.797-0.646 1.443-1.443 1.443-0.797 0-1.443-0.646-1.443-1.443 0-0.797 0.646-1.443 1.443-1.444 0.797 0 1.443 0.646 1.443 1.444z" color="#D9BCA9" fill="#d9bca9" data-fill-palette-color="accent"></path><path d="M25.207 81.757c0 0.797-0.646 1.443-1.444 1.443-0.797 0-1.443-0.646-1.443-1.443 0-0.797 0.646-1.443 1.443-1.444 0.797 0 1.443 0.646 1.444 1.444z" color="#D9BCA9" fill="#d9bca9" data-fill-palette-color="accent"></path><path d="M66.968 24.023c0-0.797-0.646-1.443-1.444-1.443-0.797 0-1.443 0.646-1.443 1.443 0 0.797 0.646 1.443 1.443 1.444 0.797 0 1.443-0.646 1.444-1.444z" color="#D9BCA9" fill="#d9bca9" data-fill-palette-color="accent"></path><path d="M68.443 29.797c0-0.797-0.646-1.443-1.443-1.444-0.797 0-1.443 0.646-1.444 1.444 0 0.797 0.646 1.443 1.444 1.443 0.797 0 1.443-0.646 1.443-1.443z" color="#D9BCA9" fill="#d9bca9" data-fill-palette-color="accent"></path><path d="M68.443 35.57c0-0.797-0.646-1.443-1.443-1.443-0.797 0-1.443 0.646-1.444 1.443 0 0.797 0.646 1.443 1.444 1.443 0.797 0 1.443-0.646 1.443-1.443z" color="#D9BCA9" fill="#d9bca9" data-fill-palette-color="accent"></path><path d="M68.443 41.343c0-0.797-0.646-1.443-1.443-1.443-0.797 0-1.443 0.646-1.444 1.443 0 0.797 0.646 1.443 1.444 1.444 0.797 0 1.443-0.646 1.443-1.444z" color="#D9BCA9" fill="#d9bca9" data-fill-palette-color="accent"></path><path d="M68.443 47.117c0-0.797-0.646-1.443-1.443-1.444-0.797 0-1.443 0.646-1.444 1.444 0 0.797 0.646 1.443 1.444 1.443 0.797 0 1.443-0.646 1.443-1.443z" color="#D9BCA9" fill="#d9bca9" data-fill-palette-color="accent"></path><path d="M68.443 52.89c0-0.797-0.646-1.443-1.443-1.443-0.797 0-1.443 0.646-1.444 1.443 0 0.797 0.646 1.443 1.444 1.443 0.797 0 1.443-0.646 1.443-1.443z" color="#D9BCA9" fill="#d9bca9" data-fill-palette-color="accent"></path><path d="M68.443 58.663c0-0.797-0.646-1.443-1.443-1.443-0.797 0-1.443 0.646-1.444 1.443 0 0.797 0.646 1.443 1.444 1.444 0.797 0 1.443-0.646 1.443-1.444z" color="#D9BCA9" fill="#d9bca9" data-fill-palette-color="accent"></path><path d="M68.443 64.437c0-0.797-0.646-1.443-1.443-1.444-0.797 0-1.443 0.646-1.444 1.444 0 0.797 0.646 1.443 1.444 1.443 0.797 0 1.443-0.646 1.443-1.443z" color="#D9BCA9" fill="#d9bca9" data-fill-palette-color="accent"></path><path d="M68.443 70.21c0-0.797-0.646-1.443-1.443-1.443-0.797 0-1.443 0.646-1.444 1.443 0 0.797 0.646 1.443 1.444 1.443 0.797 0 1.443-0.646 1.443-1.443z" color="#D9BCA9" fill="#d9bca9" data-fill-palette-color="accent"></path><path d="M66.968 75.983c0-0.797-0.646-1.443-1.444-1.443-0.797 0-1.443 0.646-1.443 1.443 0 0.797 0.646 1.443 1.443 1.444 0.797 0 1.443-0.646 1.444-1.444z" color="#D9BCA9" fill="#d9bca9" data-fill-palette-color="accent"></path><path d="M28.093 18.25c0-0.797 0.646-1.443 1.444-1.443 0.797 0 1.443 0.646 1.443 1.443 0 0.797-0.646 1.443-1.443 1.443-0.797 0-1.443-0.646-1.444-1.443z" color="#D9BCA9" fill="#d9bca9" data-fill-palette-color="accent"></path><path d="M22.32 18.25c0-0.797 0.646-1.443 1.443-1.443 0.797 0 1.443 0.646 1.444 1.443 0 0.797-0.646 1.443-1.444 1.443-0.797 0-1.443-0.646-1.443-1.443z" color="#D9BCA9" fill="#d9bca9" data-fill-palette-color="accent"></path><path d="M16.547 18.25c0-0.797 0.646-1.443 1.443-1.443 0.797 0 1.443 0.646 1.443 1.443 0 0.797-0.646 1.443-1.443 1.443-0.797 0-1.443-0.646-1.443-1.443z" color="#D9BCA9" fill="#d9bca9" data-fill-palette-color="accent"></path><path d="M10.773 19.725c0-0.797 0.646-1.443 1.444-1.443 0.797 0 1.443 0.646 1.443 1.443 0 0.797-0.646 1.443-1.443 1.444-0.797 0-1.443-0.646-1.444-1.444z" color="#D9BCA9" fill="#d9bca9" data-fill-palette-color="accent"></path><path d="M6.475 75.983c0 0.797 0.646 1.443 1.444 1.444 0.797 0 1.443-0.646 1.443-1.444 0-0.797-0.646-1.443-1.443-1.443-0.797 0-1.443 0.646-1.444 1.443z" color="#D9BCA9" fill="#d9bca9" data-fill-palette-color="accent"></path><path d="M5 70.21c0 0.797 0.646 1.443 1.443 1.443 0.797 0 1.443-0.646 1.444-1.443 0-0.797-0.646-1.443-1.444-1.443C5.646 68.767 5 69.413 5 70.21z" color="#D9BCA9" fill="#d9bca9" data-fill-palette-color="accent"></path><path d="M5 64.437c0 0.797 0.646 1.443 1.443 1.443 0.797 0 1.443-0.646 1.444-1.443 0-0.797-0.646-1.443-1.444-1.444C5.646 62.993 5 63.64 5 64.437z" color="#D9BCA9" fill="#d9bca9" data-fill-palette-color="accent"></path><path d="M5 58.663c0 0.797 0.646 1.443 1.443 1.444 0.797 0 1.443-0.646 1.444-1.444 0-0.797-0.646-1.443-1.444-1.443C5.646 57.22 5 57.866 5 58.663z" color="#D9BCA9" fill="#d9bca9" data-fill-palette-color="accent"></path><path d="M5 52.89c0 0.797 0.646 1.443 1.443 1.443 0.797 0 1.443-0.646 1.444-1.443 0-0.797-0.646-1.443-1.444-1.443C5.646 51.447 5 52.093 5 52.89z" color="#D9BCA9" fill="#d9bca9" data-fill-palette-color="accent"></path><path d="M5 47.117c0 0.797 0.646 1.443 1.443 1.443 0.797 0 1.443-0.646 1.444-1.443 0-0.797-0.646-1.443-1.444-1.444C5.646 45.673 5 46.319 5 47.117z" color="#D9BCA9" fill="#d9bca9" data-fill-palette-color="accent"></path><path d="M5 41.343c0 0.797 0.646 1.443 1.443 1.444 0.797 0 1.443-0.646 1.444-1.444 0-0.797-0.646-1.443-1.444-1.443C5.646 39.9 5 40.546 5 41.343z" color="#D9BCA9" fill="#d9bca9" data-fill-palette-color="accent"></path><path d="M5 35.57c0 0.797 0.646 1.443 1.443 1.443 0.797 0 1.443-0.646 1.444-1.443 0-0.797-0.646-1.443-1.444-1.443C5.646 34.127 5 34.773 5 35.57z" color="#D9BCA9" fill="#d9bca9" data-fill-palette-color="accent"></path><path d="M5 29.797c0 0.797 0.646 1.443 1.443 1.443 0.797 0 1.443-0.646 1.444-1.443 0-0.797-0.646-1.443-1.444-1.444C5.646 28.353 5 28.999 5 29.797z" color="#D9BCA9" fill="#d9bca9" data-fill-palette-color="accent"></path><path d="M6.475 24.023c0 0.797 0.646 1.443 1.444 1.444 0.797 0 1.443-0.646 1.443-1.444 0-0.797-0.646-1.443-1.443-1.443-0.797 0-1.443 0.646-1.444 1.443z" color="#D9BCA9" fill="#d9bca9" data-fill-palette-color="accent"></path><path d="M12.931 52.323l0-4.639 5.216 0 0-2.765 6.033 5.084-6.033 5.084 0-2.765z" color="#D9BCA9" fill="#d9bca9" data-fill-palette-color="accent"></path></svg></g></g></svg></g><defs><mask id="27c0ab82-85cd-44b2-a7b9-16b8b7c10a53"><rect width="640" height="400" fill="white"></rect><rect width="348.05760000000004" height="80.63871185157447" fill="black" x="145.97119999999998" y="159.68064407421275" id="transform-me" transform="matrix(1,0,0,1,-122.24000000000001,-76.4)"></rect></mask></defs></svg><rect width="395.52" height="247.2" fill="none" stroke="none" visibility="hidden"></rect></g></svg></g></svg>