<svg xmlns="http://www.w3.org/2000/svg" version="1.1" xmlns:xlink="http://www.w3.org/1999/xlink" xmlns:svgjs="http://svgjs.dev/svgjs" width="1000" height="171" viewBox="0 0 1000 171"><g transform="matrix(1,0,0,1,-0.6060606060606233,-0.4076012359636394)"><svg viewBox="0 0 396 68" data-background-color="#ffffff" preserveAspectRatio="xMidYMid meet" height="171" width="1000" xmlns="http://www.w3.org/2000/svg" xmlns:xlink="http://www.w3.org/1999/xlink"><g id="tight-bounds" transform="matrix(1,0,0,1,0.2400000000000091,0.16208704120191442)"><svg viewBox="0 0 395.52 67.67582591759616" height="67.67582591759616" width="395.52"><g><svg viewBox="0 0 395.52 67.67582591759616" height="67.67582591759616" width="395.52"><g><svg viewBox="0 0 395.52 67.67582591759616" height="67.67582591759616" width="395.52"><g><svg viewBox="0 0 496.2674122539706 84.91430774746067" height="67.67582591759616" width="395.52"><g transform="matrix(1,0,0,1,100.74741225397058,21.976134156542525)"><svg viewBox="0 0 395.52 40.96203943437562" height="40.96203943437562" width="395.52"><g id="textblocktransform"><svg viewBox="0 0 395.52 40.96203943437562" height="40.96203943437562" width="395.52" id="textblock"><g><svg viewBox="0 0 395.52 40.96203943437562" height="40.96203943437562" width="395.52"><g transform="matrix(1,0,0,1,0,0)"><svg width="395.52" viewBox="1.25 -25.55 251.03 26" height="40.96203943437562" data-palette-color="#885baa"><path d="M9.6 0.45Q7.5 0.45 5.75 0.1 4-0.25 2.98-0.63 1.95-1 1.7-1.15L1.7-1.15 1.25-1.8Q1.4-2.45 1.73-4.5 2.05-6.55 2.1-8.25L2.1-8.25 6.7-8.6Q6.7-6.25 7.63-5.25 8.55-4.25 10.6-4.25L10.6-4.25Q12.15-4.25 13.03-4.78 13.9-5.3 13.9-6.2L13.9-6.2Q13.9-7.25 12.83-7.95 11.75-8.65 9.4-9.6L9.4-9.6 7.95-10.2Q4.95-11.5 3.25-13.13 1.55-14.75 1.55-17.4L1.55-17.4Q1.55-19.8 3.08-21.65 4.6-23.5 7.35-24.53 10.1-25.55 13.7-25.55L13.7-25.55Q15.65-25.55 17.35-25.33 19.05-25.1 20.05-24.85 21.05-24.6 21.3-24.5L21.3-24.5 21.75-23.75Q21.6-23.2 21.23-21.2 20.85-19.2 20.65-17L20.65-17 16.45-16.7 15.95-17 16-17.8Q16-20.65 12.65-20.65L12.65-20.65Q11.3-20.65 10.43-20.1 9.55-19.55 9.55-18.65L9.55-18.65Q9.55-17.5 10.78-16.8 12-16.1 14.85-14.95L14.85-14.95Q18.2-13.55 20.1-11.98 22-10.4 22-7.6L22-7.6Q22-3.9 18.68-1.73 15.35 0.45 9.6 0.45L9.6 0.45ZM24.8 0.25L25.1-2.9Q26.8-3.2 27.35-3.83 27.9-4.45 27.9-6.1L27.9-6.1 27.9-19.9Q27.9-21.1 27.6-21.5 27.3-21.9 26.45-21.9L26.45-21.9 25.3-21.9 24.95-22.35 25.3-25.15 30.5-25.1Q32.65-25.1 34.92-25.18 37.2-25.25 38.05-25.3L38.05-25.3 37.8-22.05Q36.4-21.85 36-21.45 35.6-21.05 35.55-19.85L35.55-19.85 35.3-14.95 39.4-14.8Q41.9-14.8 43.3-15L43.3-15 43.35-19.9Q43.35-21.1 43.05-21.5 42.75-21.9 41.85-21.9L41.85-21.9 40.7-21.9 40.35-22.35 40.7-25.15Q40.7-25.1 46.9-25.1L46.9-25.1Q48.75-25.1 50.85-25.18 52.95-25.25 53.75-25.3L53.75-25.3 53.5-22.1Q52-21.9 51.55-21.53 51.1-21.15 51-20L51-20Q50.55-13.8 50.55-5.85L50.55-5.85Q50.55-4.35 50.92-3.8 51.3-3.25 52.2-3.25L52.2-3.25Q52.65-3.25 53-3.3 53.35-3.35 53.45-3.35L53.45-3.35 53.8-2.95 53.4 0.05 46.7 0 40.2 0.05 40.5-3.15Q42.05-3.15 42.67-3.83 43.3-4.5 43.3-6.25L43.3-6.25 43.3-10.45 40.2-10.5Q39-10.45 37.4-10.33 35.8-10.2 35.15-10.15L35.15-10.15 35.1-5.85Q35.1-4.25 35.4-3.7 35.7-3.15 36.55-3.15L36.55-3.15Q37-3.15 37.35-3.2 37.7-3.25 37.8-3.3L37.8-3.3 38.05-2.9 37.7 0.15Q36.95 0.15 35.07 0.08 33.2 0 31.55 0L31.55 0Q29.8 0 27.65 0.08 25.5 0.15 24.8 0.25L24.8 0.25ZM68.5 0.25L68.2-0.05 68.4-3.15Q69.85-3.3 70.4-3.4 70.95-3.5 71.12-3.73 71.3-3.95 71.3-4.45L71.3-4.45Q71.3-4.65 71.25-4.88 71.2-5.1 71.15-5.3L71.15-5.3 70.7-7.2Q69.6-7.25 67.3-7.25L67.3-7.25Q66.6-7.25 65.1-7.15L65.1-7.15Q64.2-7.05 63.8-7.05L63.8-7.05 63.2-5.05Q63.05-4.4 63.05-4.1L63.05-4.1Q63.05-3.55 63.32-3.38 63.6-3.2 64.5-3.2L64.5-3.2 65.8-3.2 66.15-2.85 65.8 0.2Q65.2 0.15 63.4 0.1 61.6 0.05 59.5 0.05L59.5 0.05 54.2 0.05 54.5-3.1Q55.3-3.3 55.85-3.83 56.4-4.35 56.75-5.35L56.75-5.35 63.6-24.9 73.1-25.55 73.65-25.15Q74.25-22.8 76.17-15.78 78.1-8.75 79.05-5.75L79.05-5.75Q79.45-4.4 80.05-3.8 80.65-3.2 81.75-3.1L81.75-3.1 82-2.75 81.7 0.1 76.1 0.05Q73.75 0.05 71.45 0.13 69.15 0.2 68.5 0.25L68.5 0.25ZM65.05-11.55L67.4-11.55Q68.25-11.55 69.85-11.65L69.85-11.65 68.1-18.95 67.35-18.95 65.05-11.55ZM83.54 0.35L83.89-3Q85.49-3.25 86.07-3.95 86.64-4.65 86.64-6.25L86.64-6.25 86.64-19.8Q86.64-21 86.39-21.45 86.14-21.9 85.49-21.9L85.49-21.9 84.04-21.85 83.69-22.25 84.09-25.15 89.74-25.1Q91.59-25.1 93.77-25.2 95.94-25.3 96.79-25.35L96.79-25.35Q102.94-25.35 105.29-22.98 107.64-20.6 107.64-17.4L107.64-17.4Q107.64-15 106.24-12.9 104.84-10.8 102.47-9.55 100.09-8.3 97.44-8.3L97.44-8.3 93.89-8.3 93.84-6.15Q93.84-4.4 94.24-3.8 94.64-3.2 95.89-3.2L95.89-3.2Q96.39-3.2 96.84-3.25 97.29-3.3 97.44-3.3L97.44-3.3 97.59-3 97.19 0.15Q96.44 0.15 94.54 0.08 92.64 0 90.99 0L90.99 0Q89.74 0 87.09 0.15 84.44 0.3 83.54 0.35L83.54 0.35ZM97.09-12.3Q98.54-12.7 99.24-13.85 99.94-15 99.94-16.95L99.94-16.95Q99.94-19 98.79-19.93 97.64-20.85 95.09-20.85L95.09-20.85Q94.64-20.85 94.52-20.7 94.39-20.55 94.34-20.05L94.34-20.05Q94.04-15.95 93.99-12.75L93.99-12.75 97.09-12.3ZM108.94 0.4L109.34-2.95Q110.94-3.2 111.52-3.93 112.09-4.65 112.09-6.35L112.09-6.35 112.14-19.8Q112.14-21.05 111.89-21.48 111.64-21.9 110.94-21.9L110.94-21.9 109.79-21.85 109.39-22.35 109.74-25.2Q110.64-25.2 113.22-25.15 115.79-25.1 118.69-25.1L118.69-25.1Q127.14-25.1 131.44-25.55L131.44-25.55 131.89-25.05Q131.74-24.4 131.39-22.08 131.04-19.75 130.94-17.45L130.94-17.45 125.84-17.1Q125.84-17.25 125.89-17.7 125.94-18.15 125.94-18.6L125.94-18.6Q125.94-19.55 125.62-20 125.29-20.45 124.39-20.63 123.49-20.8 121.54-20.8L121.54-20.8Q120.44-20.8 120.14-20.6 119.84-20.4 119.84-19.7L119.84-19.7 119.59-14.85 123.14-14.85Q124.39-14.85 125.79-14.95 127.19-15.05 127.74-15.1L127.74-15.1 128.19-14.6 127.59-10.4Q127.09-10.4 125.62-10.45 124.14-10.5 122.54-10.5L122.54-10.5Q121.64-10.5 120.69-10.4 119.74-10.3 119.39-10.3L119.39-10.3Q119.34-8.6 119.34-6.45L119.34-6.45Q119.34-5.35 119.49-4.9 119.64-4.45 120.09-4.28 120.54-4.1 121.54-4.1L121.54-4.1Q123.64-4.1 124.64-4.4 125.64-4.7 126.12-5.55 126.59-6.4 126.89-8.3L126.89-8.3 131.59-8.65 131.99-8.1Q131.84-7.45 131.47-5.15 131.09-2.85 130.89-0.3L130.89-0.3 130.29 0.25Q129.09 0.2 124.99 0.1 120.89 0 117.19 0L117.19 0Q114.64 0 112.14 0.18 109.64 0.35 108.94 0.4L108.94 0.4ZM142.99 0.45Q140.89 0.45 139.14 0.1 137.39-0.25 136.36-0.63 135.34-1 135.09-1.15L135.09-1.15 134.64-1.8Q134.79-2.45 135.11-4.5 135.44-6.55 135.49-8.25L135.49-8.25 140.09-8.6Q140.09-6.25 141.01-5.25 141.94-4.25 143.99-4.25L143.99-4.25Q145.54-4.25 146.41-4.78 147.29-5.3 147.29-6.2L147.29-6.2Q147.29-7.25 146.21-7.95 145.14-8.65 142.79-9.6L142.79-9.6 141.34-10.2Q138.34-11.5 136.64-13.13 134.94-14.75 134.94-17.4L134.94-17.4Q134.94-19.8 136.46-21.65 137.99-23.5 140.74-24.53 143.49-25.55 147.09-25.55L147.09-25.55Q149.04-25.55 150.74-25.33 152.44-25.1 153.44-24.85 154.44-24.6 154.69-24.5L154.69-24.5 155.14-23.75Q154.99-23.2 154.61-21.2 154.24-19.2 154.04-17L154.04-17 149.84-16.7 149.34-17 149.39-17.8Q149.39-20.65 146.04-20.65L146.04-20.65Q144.69-20.65 143.81-20.1 142.94-19.55 142.94-18.65L142.94-18.65Q142.94-17.5 144.16-16.8 145.39-16.1 148.24-14.95L148.24-14.95Q151.59-13.55 153.49-11.98 155.39-10.4 155.39-7.6L155.39-7.6Q155.39-3.9 152.06-1.73 148.74 0.45 142.99 0.45L142.99 0.45ZM158.19 0.25L158.49-2.9Q160.19-3.2 160.74-3.83 161.29-4.45 161.29-6.1L161.29-6.1 161.29-19.9Q161.29-21.1 160.99-21.5 160.69-21.9 159.84-21.9L159.84-21.9 158.69-21.9 158.34-22.35 158.69-25.15 163.89-25.1Q166.04-25.1 168.31-25.18 170.59-25.25 171.44-25.3L171.44-25.3 171.19-22.05Q169.79-21.85 169.39-21.45 168.99-21.05 168.94-19.85L168.94-19.85 168.69-14.95 172.79-14.8Q175.29-14.8 176.69-15L176.69-15 176.74-19.9Q176.74-21.1 176.44-21.5 176.14-21.9 175.24-21.9L175.24-21.9 174.09-21.9 173.74-22.35 174.09-25.15Q174.09-25.1 180.29-25.1L180.29-25.1Q182.14-25.1 184.24-25.18 186.34-25.25 187.14-25.3L187.14-25.3 186.89-22.1Q185.39-21.9 184.94-21.53 184.49-21.15 184.39-20L184.39-20Q183.94-13.8 183.94-5.85L183.94-5.85Q183.94-4.35 184.31-3.8 184.69-3.25 185.59-3.25L185.59-3.25Q186.04-3.25 186.39-3.3 186.74-3.35 186.84-3.35L186.84-3.35 187.19-2.95 186.79 0.05 180.09 0 173.59 0.05 173.89-3.15Q175.44-3.15 176.06-3.83 176.69-4.5 176.69-6.25L176.69-6.25 176.69-10.45 173.59-10.5Q172.39-10.45 170.79-10.33 169.19-10.2 168.54-10.15L168.54-10.15 168.49-5.85Q168.49-4.25 168.79-3.7 169.09-3.15 169.94-3.15L169.94-3.15Q170.39-3.15 170.74-3.2 171.09-3.25 171.19-3.3L171.19-3.3 171.44-2.9 171.09 0.15Q170.34 0.15 168.46 0.08 166.59 0 164.94 0L164.94 0Q163.19 0 161.04 0.08 158.89 0.15 158.19 0.25L158.19 0.25ZM189.63 0.25L189.93-2.9Q191.63-3.25 192.18-3.88 192.73-4.5 192.73-6.1L192.73-6.1 192.73-19.9Q192.73-21.1 192.43-21.5 192.13-21.9 191.28-21.9L191.28-21.9 190.08-21.9 189.73-22.35 190.08-25.15 196.43-25.1Q198.23-25.1 200.28-25.18 202.33-25.25 203.13-25.3L203.13-25.3 202.88-22.05Q201.38-21.85 200.93-21.48 200.48-21.1 200.38-20L200.38-20Q199.93-13 199.93-5.85L199.93-5.85Q199.93-4.25 200.23-3.7 200.53-3.15 201.38-3.15L201.38-3.15Q201.93-3.15 202.33-3.2 202.73-3.25 202.83-3.3L202.83-3.3 203.13-2.9 202.78 0.15Q201.98 0.15 199.93 0.08 197.88 0 196.08 0L196.08 0Q194.53 0 192.41 0.1 190.28 0.2 189.63 0.25L189.63 0.25ZM205.58 0.4L205.98-2.95Q207.58-3.15 208.16-3.88 208.73-4.6 208.73-6.35L208.73-6.35 208.78-19.8Q208.78-21.05 208.53-21.48 208.28-21.9 207.58-21.9L207.58-21.9 206.43-21.85 206.03-22.35 206.38-25.2Q207.28-25.2 209.86-25.15 212.43-25.1 215.33-25.1L215.33-25.1Q223.03-25.1 226.98-25.55L226.98-25.55 227.43-25.05Q227.33-24.35 227.06-22 226.78-19.65 226.63-17.45L226.63-17.45 221.58-17.15Q221.58-17.3 221.63-17.73 221.68-18.15 221.68-18.6L221.68-18.6Q221.68-19.95 221.01-20.38 220.33-20.8 218.18-20.8L218.18-20.8Q217.08-20.8 216.78-20.6 216.48-20.4 216.48-19.7L216.48-19.7 216.18-14.2 219.78-14.15Q220.53-14.15 222.06-14.28 223.58-14.4 224.08-14.45L224.08-14.45 224.53-13.95 223.98-9.75Q223.48-9.75 222.08-9.8 220.68-9.85 219.18-9.85L219.18-9.85Q218.23-9.85 217.28-9.75 216.33-9.65 216.03-9.65L216.03-9.65 215.98-6.5Q215.98-5.05 216.33-4.58 216.68-4.1 217.73-4.1L217.73-4.1Q218.43-4.1 219.21-4.23 219.98-4.35 220.23-4.4L220.23-4.4 220.78-3.75 220.28 0.1Q219.53 0.1 217.53 0.05 215.53 0 213.63 0L213.63 0Q211.18 0 208.73 0.18 206.28 0.35 205.58 0.4L205.58 0.4ZM232.13 0.35L232.43-3Q234.23-3.15 235.08-3.48 235.93-3.8 236.25-4.48 236.58-5.15 236.58-6.5L236.58-6.5 236.58-20.85Q235.08-20.8 234.35-20.43 233.63-20.05 233.33-19 233.03-17.95 232.78-15.55L232.78-15.55 228.18-15.3Q228.23-16.2 228.38-19.28 228.53-22.35 228.58-25.05L228.58-25.05 229.08-25.55 233.78-25.1 246.73-25.1 251.43-25.55 251.98-25.05Q252.03-22.3 252.13-19.35 252.23-16.4 252.28-15.55L252.28-15.55 247.68-15.3Q247.43-17.9 247.13-18.98 246.83-20.05 246.2-20.43 245.58-20.8 244.13-20.85L244.13-20.85Q243.83-15.15 243.83-5.95L243.83-5.95Q243.83-4.5 244.3-3.9 244.78-3.3 246.03-3.3L246.03-3.3Q246.78-3.3 247.35-3.35 247.93-3.4 248.13-3.4L248.13-3.4 248.33-3.2 247.93 0.2Q246.98 0.15 244.58 0.08 242.18 0 239.98 0L239.98 0Q238.38 0 235.68 0.15 232.98 0.3 232.13 0.35L232.13 0.35Z" opacity="1" transform="matrix(1,0,0,1,0,0)" fill="#885baa" class="undefined-text-0" data-fill-palette-color="primary" id="text-0"></path></svg></g></svg></g></svg></g></svg></g><g><svg viewBox="0 0 91.07725783246092 84.91430774746067" height="84.91430774746067" width="91.07725783246092"><g><svg xmlns="http://www.w3.org/2000/svg" xmlns:xlink="http://www.w3.org/1999/xlink" version="1.1" x="0" y="0" viewBox="2.8715212517722115 2.7669626232915445 94.4834787482278 88.09003896709538" enable-background="new 0 0 100 100" xml:space="preserve" height="84.91430774746067" width="91.07725783246092" class="icon-icon-0" data-fill-palette-color="accent" id="icon-0"><path d="M29.421 19.786c0 2.725 2.212 4.936 4.937 4.936 2.463 0 3.646-1.558 4.454-0.597 0.416 0.495 0.479 1.12 0.479 2.987v9.676l8.237 0.003c1.208 0 1.38-0.116 1.479-0.35 0.207-0.478-0.218-1.26-0.218-3.059 0-3.791 4-6.814 7.511-6.814 3.505 0 7.501 2.874 7.501 6.814 0 1.799-0.424 2.578-0.216 3.059 0.101 0.232 0.272 0.35 1.479 0.35h8.233V6.801c0 0 0.126-2.123-0.885-3.135-1.009-1.007-3.401-0.885-3.401-0.885H39.292v9.68c0 1.869-0.064 2.49-0.476 2.987-0.808 0.963-1.994-0.596-4.457-0.596C31.633 14.852 29.421 17.061 29.421 19.786z" fill="#bb90db" data-fill-palette-color="accent"></path><path d="M2.886 36.794h9.681c1.869 0 2.49 0.061 2.987 0.477 0.964 0.808-0.596 1.993-0.596 4.456 0 2.727 2.211 4.938 4.937 4.938 2.722 0 4.933-2.211 4.933-4.937 0-2.462-1.56-3.646-0.595-4.457 0.494-0.413 1.118-0.477 2.986-0.477h9.679v-8.238c0-1.207-0.116-1.379-0.352-1.478-0.477-0.206-1.258 0.215-3.056 0.215-3.792 0-6.817-3.998-6.817-7.507 0-3.507 2.873-7.505 6.817-7.505 1.795 0 2.579 0.425 3.056 0.218 0.233-0.1 0.352-0.27 0.352-1.479V2.781H7.686c0 0-2.827-0.197-3.911 0.885-1.084 1.087-0.89 3.516-0.89 3.516V36.794z" fill="#bb90db" data-fill-palette-color="accent"></path><path d="M46.768 56.415c0-2.728-2.208-4.937-4.934-4.937-2.464 0-3.649 1.558-4.457 0.596-0.413-0.497-0.477-1.118-0.477-2.986v-9.679l-8.236-0.004c-1.208 0-1.38 0.12-1.482 0.354-0.203 0.478 0.218 1.259 0.218 3.057 0 3.79-4.001 6.814-7.508 6.814s-7.505-2.871-7.505-6.814c0-1.798 0.427-2.579 0.218-3.057-0.099-0.23-0.27-0.35-1.479-0.35H2.886v29.332c0 0-0.055 2.47 1.018 3.537 1.068 1.07 3.506 1.139 3.506 1.139H36.9v-9.678c0-1.867 0.064-2.492 0.477-2.986 0.811-0.965 1.993 0.599 4.457 0.599C44.559 61.352 46.768 59.139 46.768 56.415z" fill="#bb90db" data-fill-palette-color="accent"></path><path d="M76.521 88.893l20.834-20.832-6.843-6.842c-1.322-1.322-1.719-1.805-1.777-2.45-0.109-1.252 1.832-0.984 3.574-2.728 1.927-1.928 1.931-5.054 0-6.979-1.929-1.929-5.049-1.929-6.978-0.003-1.741 1.743-1.479 3.686-2.728 3.574-0.646-0.055-1.131-0.453-2.452-1.776l-6.845-6.843-5.826 5.827c-0.853 0.854-0.893 1.054-0.796 1.292 0.19 0.483 1.042 0.735 2.314 2.007 2.683 2.681 1.99 7.648-0.49 10.13-2.483 2.48-7.337 3.274-10.126 0.485-1.27-1.27-1.522-2.121-2.008-2.316-0.236-0.089-0.439-0.052-1.297 0.803l-5.822 5.825 20.908 20.907c0 0 1.642 1.885 3.141 1.883C74.801 90.858 76.521 88.893 76.521 88.893z" fill="#bb90db" data-fill-palette-color="accent"></path></svg></g></svg></g></svg></g></svg></g></svg></g><defs></defs></svg><rect width="395.52" height="67.67582591759616" fill="none" stroke="none" visibility="hidden"></rect></g></svg></g></svg>