<svg xmlns="http://www.w3.org/2000/svg" version="1.1" xmlns:xlink="http://www.w3.org/1999/xlink" xmlns:svgjs="http://svgjs.dev/svgjs" width="2000" height="676" viewBox="0 0 2000 676"><g transform="matrix(1,0,0,1,-1.2120970245174476,-122.52097485774189)"><svg viewBox="0 0 396 134" data-background-color="#ffffff" preserveAspectRatio="xMidYMid meet" height="676" width="2000" xmlns="http://www.w3.org/2000/svg" xmlns:xlink="http://www.w3.org/1999/xlink"><g id="tight-bounds" transform="matrix(1,0,0,1,0.23999521085445963,24.286702116771323)"><svg viewBox="0 0 395.5199999999999 109.8050207239331" height="109.8050207239331" width="395.5199999999999"><g><svg viewBox="0 0 592.3922122540789 164.46106174973633" height="109.8050207239331" width="395.5199999999999"><g transform="matrix(1,0,0,1,196.872212254079,47.90773810438043)"><svg viewBox="0 0 395.52 68.64558554097547" height="68.64558554097547" width="395.52"><g id="textblocktransform"><svg viewBox="0 0 395.52 68.64558554097547" height="68.64558554097547" width="395.52" id="textblock"><g><svg viewBox="0 0 395.52 68.64558554097547" height="68.64558554097547" width="395.52"><g transform="matrix(1,0,0,1,0,0)"><svg width="395.52" viewBox="3 -35 201.92999267578125 35.04999923706055" height="68.64558554097547" data-palette-color="#5d1b92"><path d="M17.95 0L6.6 0Q5.1 0 4.05-1.05 3-2.1 3-3.6L3-3.6 3-11.35 7.65-10.3 7.65-6.45Q7.65-5.7 8.18-5.18 8.7-4.65 9.4-4.65L9.4-4.65 15.1-4.65Q15.85-4.65 16.38-5.18 16.9-5.7 16.9-6.45L16.9-6.45 16.9-15.25Q16.9-16 16.38-16.53 15.85-17.05 15.1-17.05L15.1-17.05 6.6-17.05Q5.1-17.05 4.05-18.1 3-19.15 3-20.65L3-20.65 3-31.4Q3-32.9 4.05-33.95 5.1-35 6.6-35L6.6-35 17.95-35Q19.45-35 20.5-33.95 21.55-32.9 21.55-31.4L21.55-31.4 21.55-26 16.9-27.1 16.9-28.55Q16.9-29.3 16.38-29.83 15.85-30.35 15.1-30.35L15.1-30.35 9.4-30.35Q8.7-30.35 8.18-29.83 7.65-29.3 7.65-28.55L7.65-28.55 7.65-23.5Q7.65-22.75 8.18-22.23 8.7-21.7 9.4-21.7L9.4-21.7 17.95-21.7Q19.45-21.7 20.5-20.65 21.55-19.6 21.55-18.1L21.55-18.1 21.55-3.6Q21.55-2.1 20.5-1.05 19.45 0 17.95 0L17.95 0ZM29.8 0L25.15 0 25.15-35 29.8-35 29.8-21.7 39.1-21.7 39.1-35 43.7-35 43.7 0 39.1 0 39.1-17.05 29.8-17.05 29.8 0ZM51.05 0.05L46.4 0.05 53.45-34.95 58-34.95 64.95 0.05 60.3 0.05 58.95-6.5 52.3-6.5 51.05 0.05ZM55.75-23.55L53.2-11.1 58.15-11.1 55.75-23.55ZM72.79 0L68.14 0 68.14-35 83.14-35Q84.59-35 85.67-33.95 86.74-32.9 86.74-31.4L86.74-31.4 86.74-20.65Q86.74-19.15 85.67-18.1 84.59-17.05 83.14-17.05L83.14-17.05 72.79-17.05 72.79 0ZM72.79-30.35L72.79-21.7 80.29-21.7Q81.04-21.7 81.57-22.23 82.09-22.75 82.09-23.5L82.09-23.5 82.09-28.6Q82.09-29.3 81.57-29.83 81.04-30.35 80.29-30.35L80.29-30.35 72.79-30.35ZM108.54 0L89.94 0 89.94-35 108.54-35 108.54-30.4 94.59-30.4 94.59-21.7 103.89-21.7 102.84-17.05 94.59-17.05 94.59-4.65 108.54-4.65 108.54 0ZM126.49 0L115.14 0Q113.64 0 112.59-1.05 111.54-2.1 111.54-3.6L111.54-3.6 111.54-11.35 116.19-10.3 116.19-6.45Q116.19-5.7 116.71-5.18 117.24-4.65 117.94-4.65L117.94-4.65 123.64-4.65Q124.39-4.65 124.91-5.18 125.44-5.7 125.44-6.45L125.44-6.45 125.44-15.25Q125.44-16 124.91-16.53 124.39-17.05 123.64-17.05L123.64-17.05 115.14-17.05Q113.64-17.05 112.59-18.1 111.54-19.15 111.54-20.65L111.54-20.65 111.54-31.4Q111.54-32.9 112.59-33.95 113.64-35 115.14-35L115.14-35 126.49-35Q127.99-35 129.04-33.95 130.09-32.9 130.09-31.4L130.09-31.4 130.09-26 125.44-27.1 125.44-28.55Q125.44-29.3 124.91-29.83 124.39-30.35 123.64-30.35L123.64-30.35 117.94-30.35Q117.24-30.35 116.71-29.83 116.19-29.3 116.19-28.55L116.19-28.55 116.19-23.5Q116.19-22.75 116.71-22.23 117.24-21.7 117.94-21.7L117.94-21.7 126.49-21.7Q127.99-21.7 129.04-20.65 130.09-19.6 130.09-18.1L130.09-18.1 130.09-3.6Q130.09-2.1 129.04-1.05 127.99 0 126.49 0L126.49 0ZM138.34 0L133.69 0 133.69-35 138.34-35 138.34-21.7 147.64-21.7 147.64-35 152.24-35 152.24 0 147.64 0 147.64-17.05 138.34-17.05 138.34 0ZM161.08 0L156.43 0 156.43-35 161.08-35 161.08 0ZM169.43 0L164.78 0 164.78-35 183.38-35 183.38-30.35 169.43-30.35 169.43-21.7 178.73-21.7 177.68-17.05 169.43-17.05 169.43 0ZM197.98 0L193.33 0 193.33-30.35 186.38-30.35 186.38-35 204.93-35 204.93-30.35 197.98-30.35 197.98 0Z" opacity="1" transform="matrix(1,0,0,1,0,0)" fill="#5d1b92" class="undefined-text-0" data-fill-palette-color="primary" id="text-0"></path></svg></g></svg></g></svg></g></svg></g><g><svg viewBox="0 0 164.46106174973633 164.46106174973633" height="164.46106174973633" width="164.46106174973633"><g><svg></svg></g><g id="icon-0"><svg viewBox="0 0 164.46106174973633 164.46106174973633" height="164.46106174973633" width="164.46106174973633"><g><path d="M0 82.231c0-45.415 36.816-82.231 82.231-82.231 45.415 0 82.231 36.816 82.23 82.231 0 45.415-36.816 82.231-82.23 82.23-45.415 0-82.231-36.816-82.231-82.23zM82.231 158.271c41.996 0 76.04-34.044 76.04-76.04 0-41.996-34.044-76.04-76.04-76.04-41.996 0-76.04 34.044-76.04 76.04 0 41.996 34.044 76.04 76.04 76.04z" data-fill-palette-color="accent" fill="#5d1b92" stroke="transparent"></path></g><g transform="matrix(1,0,0,1,37.10408404497823,37.10408404497823)"><svg viewBox="0 0 90.25289365977987 90.25289365977987" height="90.25289365977987" width="90.25289365977987"><g><svg xmlns="http://www.w3.org/2000/svg" viewBox="32 32 448 448" x="0" y="0" height="90.25289365977987" width="90.25289365977987" class="icon-s-0" data-fill-palette-color="accent" id="s-0"><path d="M226.343 266.343A8 8 0 0 1 232 264h24V232H232a8 8 0 0 1-5.657-2.343l-24.971-24.97A15.888 15.888 0 0 0 190.059 200H184v16h8v16H144a8.009 8.009 0 0 0-8 8v40a8.009 8.009 0 0 0 8 8h30.059A73.453 73.453 0 0 0 226.343 266.343Z" fill="#5d1b92" data-fill-palette-color="accent"></path><path d="M160 176a8.009 8.009 0 0 0-8 8v32h16V184A8.009 8.009 0 0 0 160 176Z" fill="#5d1b92" data-fill-palette-color="accent"></path><path d="M152 304V414.919a29.633 29.633 0 0 0 21.521-30.342L168.484 304Z" fill="#5d1b92" data-fill-palette-color="accent"></path><path d="M256 280H235.227a89.161 89.161 0 0 1-50.75 23.382l5.012 80.2A45.575 45.575 0 0 1 144 432a8 8 0 0 1-8-8V302.624A24.039 24.039 0 0 1 120 280V240a24.039 24.039 0 0 1 16-22.624V184a24 24 0 0 1 48 0h6.059a31.792 31.792 0 0 1 22.628 9.372L235.313 216H256V184h-8a8 8 0 0 1-8-8V144a8 8 0 0 1 8-8H448V64H400v56H384V64H96V448H224v16H96v16H240V456a8 8 0 0 1 8-8h8ZM416 88h16v16H416Z" fill="#5d1b92" data-fill-palette-color="accent"></path><path d="M32 248H80V64H32ZM48 88H64v16H48Zm0 40H64v16H48Zm0 40H64v16H48Zm0 40H64v16H48Z" fill="#5d1b92" data-fill-palette-color="accent"></path><rect x="32" y="32" width="48" height="16" fill="#5d1b92" data-fill-palette-color="accent"></rect><path d="M32 448H80V264H32ZM48 288H64v16H48Zm0 40H64v16H48Zm0 40H64v16H48Zm0 40H64v16H48Z" fill="#5d1b92" data-fill-palette-color="accent"></path><rect x="96" y="32" width="288" height="16" fill="#5d1b92" data-fill-palette-color="accent"></rect><rect x="400" y="32" width="48" height="16" fill="#5d1b92" data-fill-palette-color="accent"></rect><path d="M272 184V448H464V184Zm16 128h16v16H288ZM448 424a8 8 0 0 1-8 8H296a8 8 0 0 1-8-8V344h16v72H432V216H304v80H288V208a8 8 0 0 1 8-8H440a8 8 0 0 1 8 8Zm-88-64V328a8 8 0 0 1 8-8 32 32 0 1 0-32-32 32.362 32.362 0 0 0 0.64 6.409l-15.68 3.182A48 48 0 1 1 376 335.333V360Zm16 16v16H360V376Z" fill="#5d1b92" data-fill-palette-color="accent"></path><rect x="256" y="464" width="224" height="16" fill="#5d1b92" data-fill-palette-color="accent"></rect><rect x="256" y="152" width="224" height="16" fill="#5d1b92" data-fill-palette-color="accent"></rect><rect x="32" y="464" width="48" height="16" fill="#5d1b92" data-fill-palette-color="accent"></rect></svg></g></svg></g></svg></g></svg></g></svg></g><defs></defs></svg><rect width="395.5199999999999" height="109.8050207239331" fill="none" stroke="none" visibility="hidden"></rect></g></svg></g></svg>