<svg xmlns="http://www.w3.org/2000/svg" version="1.1" xmlns:xlink="http://www.w3.org/1999/xlink" xmlns:svgjs="http://svgjs.dev/svgjs" width="2000" height="363" viewBox="0 0 2000 363"><g transform="matrix(1,0,0,1,-1.2120935778235662,0.9229656393958123)"><svg viewBox="0 0 396 72" data-background-color="#441b67" preserveAspectRatio="xMidYMid meet" height="363" width="2000" xmlns="http://www.w3.org/2000/svg" xmlns:xlink="http://www.w3.org/1999/xlink"><g id="tight-bounds" transform="matrix(1,0,0,1,0.23999452840905633,-0.18306756483883646)"><svg viewBox="0 0 395.52 72.36613013320894" height="72.36613013320894" width="395.52"><g><svg viewBox="0 0 518.5059652283 94.86819921762812" height="72.36613013320894" width="395.52"><g transform="matrix(1,0,0,1,122.98596522830002,13.111306838326321)"><svg viewBox="0 0 395.52 68.64558554097547" height="68.64558554097547" width="395.52"><g id="textblocktransform"><svg viewBox="0 0 395.52 68.64558554097547" height="68.64558554097547" width="395.52" id="textblock"><g><svg viewBox="0 0 395.52 68.64558554097547" height="68.64558554097547" width="395.52"><g transform="matrix(1,0,0,1,0,0)"><svg width="395.52" viewBox="3 -35 201.92999267578125 35.04999923706055" height="68.64558554097547" data-palette-color="#ffffff"><path d="M17.95 0L6.6 0Q5.1 0 4.05-1.05 3-2.1 3-3.6L3-3.6 3-11.35 7.65-10.3 7.65-6.45Q7.65-5.7 8.18-5.18 8.7-4.65 9.4-4.65L9.4-4.65 15.1-4.65Q15.85-4.65 16.38-5.18 16.9-5.7 16.9-6.45L16.9-6.45 16.9-15.25Q16.9-16 16.38-16.53 15.85-17.05 15.1-17.05L15.1-17.05 6.6-17.05Q5.1-17.05 4.05-18.1 3-19.15 3-20.65L3-20.65 3-31.4Q3-32.9 4.05-33.95 5.1-35 6.6-35L6.6-35 17.95-35Q19.45-35 20.5-33.95 21.55-32.9 21.55-31.4L21.55-31.4 21.55-26 16.9-27.1 16.9-28.55Q16.9-29.3 16.38-29.83 15.85-30.35 15.1-30.35L15.1-30.35 9.4-30.35Q8.7-30.35 8.18-29.83 7.65-29.3 7.65-28.55L7.65-28.55 7.65-23.5Q7.65-22.75 8.18-22.23 8.7-21.7 9.4-21.7L9.4-21.7 17.95-21.7Q19.45-21.7 20.5-20.65 21.55-19.6 21.55-18.1L21.55-18.1 21.55-3.6Q21.55-2.1 20.5-1.05 19.45 0 17.95 0L17.95 0ZM29.8 0L25.15 0 25.15-35 29.8-35 29.8-21.7 39.1-21.7 39.1-35 43.7-35 43.7 0 39.1 0 39.1-17.05 29.8-17.05 29.8 0ZM51.05 0.05L46.4 0.05 53.45-34.95 58-34.95 64.95 0.05 60.3 0.05 58.95-6.5 52.3-6.5 51.05 0.05ZM55.75-23.55L53.2-11.1 58.15-11.1 55.75-23.55ZM72.79 0L68.14 0 68.14-35 83.14-35Q84.59-35 85.67-33.95 86.74-32.9 86.74-31.4L86.74-31.4 86.74-20.65Q86.74-19.15 85.67-18.1 84.59-17.05 83.14-17.05L83.14-17.05 72.79-17.05 72.79 0ZM72.79-30.35L72.79-21.7 80.29-21.7Q81.04-21.7 81.57-22.23 82.09-22.75 82.09-23.5L82.09-23.5 82.09-28.6Q82.09-29.3 81.57-29.83 81.04-30.35 80.29-30.35L80.29-30.35 72.79-30.35ZM108.54 0L89.94 0 89.94-35 108.54-35 108.54-30.4 94.59-30.4 94.59-21.7 103.89-21.7 102.84-17.05 94.59-17.05 94.59-4.65 108.54-4.65 108.54 0ZM126.49 0L115.14 0Q113.64 0 112.59-1.05 111.54-2.1 111.54-3.6L111.54-3.6 111.54-11.35 116.19-10.3 116.19-6.45Q116.19-5.7 116.71-5.18 117.24-4.65 117.94-4.65L117.94-4.65 123.64-4.65Q124.39-4.65 124.91-5.18 125.44-5.7 125.44-6.45L125.44-6.45 125.44-15.25Q125.44-16 124.91-16.53 124.39-17.05 123.64-17.05L123.64-17.05 115.14-17.05Q113.64-17.05 112.59-18.1 111.54-19.15 111.54-20.65L111.54-20.65 111.54-31.4Q111.54-32.9 112.59-33.95 113.64-35 115.14-35L115.14-35 126.49-35Q127.99-35 129.04-33.95 130.09-32.9 130.09-31.4L130.09-31.4 130.09-26 125.44-27.1 125.44-28.55Q125.44-29.3 124.91-29.83 124.39-30.35 123.64-30.35L123.64-30.35 117.94-30.35Q117.24-30.35 116.71-29.83 116.19-29.3 116.19-28.55L116.19-28.55 116.19-23.5Q116.19-22.75 116.71-22.23 117.24-21.7 117.94-21.7L117.94-21.7 126.49-21.7Q127.99-21.7 129.04-20.65 130.09-19.6 130.09-18.1L130.09-18.1 130.09-3.6Q130.09-2.1 129.04-1.05 127.99 0 126.49 0L126.49 0ZM138.34 0L133.69 0 133.69-35 138.34-35 138.34-21.7 147.64-21.7 147.64-35 152.24-35 152.24 0 147.64 0 147.64-17.05 138.34-17.05 138.34 0ZM161.08 0L156.43 0 156.43-35 161.08-35 161.08 0ZM169.43 0L164.78 0 164.78-35 183.38-35 183.38-30.35 169.43-30.35 169.43-21.7 178.73-21.7 177.68-17.05 169.43-17.05 169.43 0ZM197.98 0L193.33 0 193.33-30.35 186.38-30.35 186.38-35 204.93-35 204.93-30.35 197.98-30.35 197.98 0Z" opacity="1" transform="matrix(1,0,0,1,0,0)" fill="#ffffff" class="undefined-text-0" data-fill-palette-color="primary" id="text-0"></path></svg></g></svg></g></svg></g></svg></g><g><svg viewBox="0 0 106.78038997612869 94.86819921762812" height="94.86819921762812" width="106.78038997612869"><g><svg xmlns="http://www.w3.org/2000/svg" xmlns:xlink="http://www.w3.org/1999/xlink" version="1.1" x="0" y="0" viewBox="-246.60000610351562 378.5 99.5 88.39999389648438" style="enable-background:new -247 370.9 100 100;" xml:space="preserve" height="94.86819921762812" width="106.78038997612869" class="icon-icon-0" data-fill-palette-color="accent" id="icon-0"><path d="M-181.8 436.5l0.7-22.7 34-24.9h-41.2l-16 20.7-15.4-19.9-8.3-11.2-18.6 14.4 13.9 2 7.1 42.3-3.5 4.5 46.5 25.2 0.2-5.5 31.9-17.2L-181.8 436.5zM-237.5 390.9l8.7-6.7 4.6 6.7h-7.2H-237.5zM-223.1 440.5l36.8-47.6h26.9l-24.8 18.3-0.8 0.5 0 0-26.6 19.6 19.1 19.6-12.6-19.4 19.9-14.7-1.4 43.5L-223.1 440.5z" fill="#c8b9d6" data-fill-palette-color="accent"></path></svg></g></svg></g></svg></g><defs></defs></svg><rect width="395.52" height="72.36613013320894" fill="none" stroke="none" visibility="hidden"></rect></g></svg></g></svg>